# xmcd CD database file
# Copyright (C) 1996 Ti Kan
#
# Track frame offsets:
# 	187
# 	14232
# 	29732
# 	42857
# 	58760
# 	76302
# 	88642
# 	106120
# 	121305
# 	137587
# 	150735
# 	166577
# 	185267
# 	198095
# 	211742
# 	231030
# 	247400
# 	260815
# 	274497
# 	288915
#
# Disc length: 4045 seconds
#
# Revision: 1
# Processed by: cddbd v1.4b41PL1 Copyright (c) Steve Scherf et al.
# Submitted via: DiscPlay 3.4.1
#
DISCID=1d0fcb14
DTITLE=Numerous Artist - Winston Summer's Best Music Collection/C&W
DYEAR=1900
DGENRE=
TTITLE0=Tennessee River
TTITLE1=Think About Love
TTITLE2=In The Midnight Hour
TTITLE3=You Turn Me On (LIke A Radio)
TTITLE4=Both To Each Other (Friends and Lovers)
TTITLE5=Night Games
TTITLE6=Too Much Is Not Enough
TTITLE7=I Wanna Say Yes
TTITLE8=Oklahoma Borderline
TTITLE9=Hard Livin'
TTITLE10=Shine, Shine, Shine
TTITLE11=You Make Me Want To Make You Mine
TTITLE12=Gotta Learn To Love Without You
TTITLE13=Fallin' In Love
TTITLE14=Lost In The Fifties Tonight (In the Still of the Night)
TTITLE15=Once In A Blue Moon
TTITLE16=Hearts Aren't Made To Break (They're Made To Love)
TTITLE17=I've Been Wrong Before
TTITLE18=Midnight Fire
TTITLE19=Sweet Memories (Newbury)
EXTD=
EXTT0=Alabama
EXTT1=Dolly Parton
EXTT2=Razzy Bailey
EXTT3=Ed Bruce
EXTT4=Eddie Rabbitt and Juice Newton
EXTT5=Charley Pride
EXTT6=The Bellamy Brothers
EXTT7=Louise Mandrell
EXTT8=Vince Gill
EXTT9=Keith Whitley
EXTT10=Eddy Raven
EXTT11=Juice Newton
EXTT12=Michael Johnson
EXTT13=Sylvia
EXTT14=Ronnie Milsap
EXTT15=Earl Thomas Conley
EXTT16=Lee Greenwood
EXTT17=Deborah Allen
EXTT18=Steve Warner
EXTT19=Willie Nelson Vocal Accomp: Suzie Waters
PLAYORDER=
